# xmcd
#
# Track frame offsets: 
#        150
#        22460
#        44595
#        68362
#        89803
#        110554
#        128887
#        154252
#        184635
#        198637
#        219655
#        236017
#        260412
#
# Disc length: 3730 seconds
#
# Revision: 1
# Processed by: cddbd v1.5.2PL0 Copyright (c) Steve Scherf et al.
# Submitted via: ExactAudioCopy v1.2
#
DISCID=c70e900d
DTITLE=Dee Dee Bridgewater - Memphis...Yes, I'm Ready
DYEAR=2107
DGENRE=Jazz
TTITLE0=Yes, I'm Ready
TTITLE1=Giving Up
TTITLE2=I Can't Get Next To You
TTITLE3=Going Down Slow
TTITLE4=Why (Am I Treated So Bad)
TTITLE5=B.A.B.Y.
TTITLE6=The Thrill Is Gone
TTITLE7=The Sweeter He Is
TTITLE8=I Can't Stand the Rain
TTITLE9=Don't Be Cruel
TTITLE10=Hound Dog
TTITLE11=Try a Little Tenderness
TTITLE12=(Take My Hand) Precious Lord
EXTD=
EXTT0=
EXTT1=
EXTT2=
EXTT3=
EXTT4=
EXTT5=
EXTT6=
EXTT7=
EXTT8=
EXTT9=
EXTT10=
EXTT11=
EXTT12=
PLAYORDER=
